<svg width="28" height="28" viewBox="0 0 28 28" fill="none" xmlns="http://www.w3.org/2000/svg">
<path d="M26.2033 7.95248V18.0955C26.1842 18.1543 26.1622 18.2125 26.1464 18.2727C25.9353 19.0799 25.2409 19.6654 24.4161 19.7051C24.2389 19.7137 24.1811 19.7772 24.1276 19.9343C23.7068 21.1728 22.5472 21.999 21.2476 22C19.9499 22.001 18.7826 21.1723 18.3652 19.9377C18.3069 19.7657 18.2377 19.7098 18.0538 19.7103C15.7345 19.7175 13.4152 19.717 11.0959 19.7108C10.9178 19.7103 10.8404 19.7533 10.7802 19.9319C10.3833 21.1131 9.28627 21.9403 8.06979 21.9962C6.79791 22.0544 5.64448 21.3557 5.1215 20.2056C5.04985 20.0485 4.99397 19.8842 4.92759 19.7151C4.54979 19.7151 4.17678 19.7161 3.80376 19.7151C2.6126 19.7108 1.79971 18.9013 1.79779 17.7115C1.79588 16.3866 1.79684 15.0613 1.79779 13.7364C1.79779 13.6418 1.79779 13.5444 1.81833 13.4527C2.23959 11.5494 2.65033 9.6437 3.09308 7.74567C3.29702 6.87069 3.87541 6.31666 4.74323 6.07021C4.82585 6.04681 4.90848 6.0234 4.99159 6C11.4107 6 17.8298 6 24.2489 6C24.2995 6.01719 24.3487 6.03821 24.4003 6.0511C25.2328 6.25982 25.7964 6.76657 26.0877 7.57278C26.1326 7.69696 26.1651 7.82591 26.2033 7.95248ZM3.33905 17.061C3.33188 17.0987 3.32424 17.1212 3.32424 17.1441C3.32329 17.3504 3.31899 17.5568 3.32424 17.7631C3.33093 18.0439 3.47135 18.1853 3.75409 18.1896C4.07982 18.1949 4.40603 18.181 4.73081 18.1949C4.89511 18.202 4.9572 18.1485 5.00973 17.9909C5.42478 16.7415 6.59302 15.9052 7.90024 15.9057C9.20794 15.9057 10.3738 16.7415 10.7893 17.9928C10.8423 18.1524 10.9082 18.1953 11.0692 18.1949C13.4047 18.1896 15.7402 18.1896 18.0753 18.1949C18.2362 18.1949 18.3026 18.1528 18.3556 17.9933C18.7554 16.7854 19.8816 15.9444 21.1258 15.9085C22.5075 15.8684 23.7111 16.7009 24.1419 18.0143C24.2145 18.2355 24.3244 18.2178 24.4753 18.1404C24.6458 18.0525 24.6792 17.8954 24.6792 17.7173C24.6768 16.154 24.6783 14.5908 24.6773 13.0271C24.6773 12.9746 24.6659 12.922 24.6582 12.858H24.481C19.3414 12.858 14.2019 12.8576 9.06227 12.8619C8.95959 12.8619 8.84305 12.8986 8.7566 12.955C8.14478 13.3533 7.5363 13.7569 6.9326 14.1676C6.71433 14.3162 6.48699 14.3883 6.22 14.3854C5.34645 14.3764 4.47242 14.3821 3.59839 14.3821H3.32233V15.5069C4.16866 15.5881 4.4643 15.7939 4.46573 16.2844C4.46717 16.7816 4.15529 16.9994 3.33857 17.062L3.33905 17.061ZM7.89881 7.52406C7.04723 7.52406 6.22287 7.5231 5.39899 7.52406C4.9209 7.52501 4.65821 7.72704 4.55314 8.19033C4.3129 9.24824 4.07982 10.3081 3.84388 11.3669C3.73451 11.8574 3.62562 12.3479 3.5129 12.8566C4.38454 12.8566 5.22514 12.858 6.06621 12.8537C6.12448 12.8537 6.18896 12.8241 6.23911 12.7912C6.75588 12.4506 7.27123 12.1091 7.78227 11.7605C7.8372 11.7232 7.89356 11.6401 7.89356 11.5776C7.89976 10.2378 7.89833 8.89815 7.89833 7.5231L7.89881 7.52406ZM12.077 11.3225V7.54269H9.43672V11.3225H12.077ZM13.6354 7.53457V11.3144H16.2761V7.53457H13.6354ZM20.4724 7.5403H17.8322V11.3206H20.4724V7.5403ZM24.6744 11.323C24.6744 10.2751 24.683 9.24633 24.6697 8.21803C24.6654 7.86842 24.3673 7.5489 24.0201 7.53648C23.3572 7.51307 22.6933 7.52979 22.0213 7.52979V11.3235L24.6744 11.323ZM9.42382 18.9557C9.42526 18.1146 8.73845 17.4283 7.89642 17.4293C7.0649 17.4302 6.38096 18.1079 6.37427 18.9366C6.36759 19.7777 7.05057 20.4712 7.88926 20.4755C8.73129 20.4798 9.42239 19.7949 9.42382 18.9557ZM22.7707 18.9643C22.7759 18.1223 22.093 17.4321 21.2524 17.4293C20.4204 17.4269 19.7321 18.1008 19.7221 18.928C19.7116 19.77 20.3903 20.4673 21.2285 20.4755C22.071 20.4836 22.7654 19.8025 22.7707 18.9643Z" fill="white"/>
</svg>
