<svg width="24" height="24" viewBox="0 0 24 24" fill="none" xmlns="http://www.w3.org/2000/svg">
<path d="M11.3009 0C11.7698 0 12.2387 0 12.7076 0C13.1093 0.0502557 13.5133 0.0868907 13.9122 0.153585C16.4192 0.572539 18.604 1.65092 20.4025 3.44698C23.0998 6.14106 24.2866 9.41566 23.9417 13.2074C23.7101 15.7526 22.7141 18.0023 21.0114 19.9139C18.7501 22.4525 15.9048 23.8198 12.5093 23.9851C10.1413 24.1002 7.91527 23.5488 5.88841 22.3126C2.77248 20.4127 0.859324 17.6609 0.186993 14.0655C0.102893 13.6155 0.0610783 13.1576 0 12.7034C0 12.2347 0 11.7659 0 11.2972C0.0192631 11.1286 0.0385263 10.96 0.0573196 10.7913C0.344387 8.20905 1.33104 5.93111 3.07224 3.99979C4.92103 1.94917 7.21146 0.668823 9.93649 0.186463C10.388 0.106617 10.8461 0.0610583 11.3009 0ZM12.0099 1.86416C6.42214 1.85664 1.8798 6.38999 1.8643 11.989C1.84926 17.5679 6.38409 22.1139 11.9864 22.1369C17.5717 22.1599 22.1437 17.597 22.1437 12.0003C22.1437 6.40783 17.6084 1.87167 12.0099 1.86416Z" fill="#535353"/>
<path d="M12.9378 8.99289C12.9378 9.79745 12.9415 10.602 12.9345 11.4066C12.9331 11.5545 12.9768 11.6461 13.0975 11.7358C14.1382 12.5089 15.1723 13.2905 16.2111 14.0664C16.5569 14.3247 16.7251 14.6567 16.6213 15.0837C16.4615 15.7412 15.7145 16.0014 15.1507 15.5919C14.5061 15.1241 13.8746 14.638 13.2371 14.1603C12.6686 13.7338 12.1029 13.3036 11.5297 12.8837C11.2215 12.6578 11.0702 12.3647 11.0702 11.9852C11.0711 10.1807 11.0688 8.3762 11.0721 6.57216C11.073 6.05457 11.3784 5.66709 11.8327 5.58489C12.2654 5.50646 12.701 5.73472 12.8556 6.14569C12.9119 6.29505 12.9331 6.46507 12.9345 6.6257C12.942 7.41477 12.9378 8.20336 12.9382 8.99242L12.9378 8.99289Z" fill="#535353"/>
</svg>
