<svg width="16" height="17" viewBox="0 0 16 17" fill="none" xmlns="http://www.w3.org/2000/svg">
<path d="M0.000416667 4.53764C0.0983333 4.19732 0.327083 3.97738 0.589167 3.7716C1.69375 2.90511 2.78958 2.02667 3.88958 1.15442C4.19667 0.911028 4.53208 0.876953 4.86792 1.0668C5.18958 1.24869 5.345 1.55315 5.32917 1.94037C5.31625 2.25413 5.16833 2.49488 4.93208 2.68118C4.49333 3.02725 4.05667 3.37597 3.62542 3.77647H3.85375C7.51333 3.77647 11.1729 3.78399 14.8325 3.76806C15.3863 3.76585 15.7908 3.9256 16 4.49338V4.93459C15.7904 5.50193 15.3858 5.66213 14.8325 5.65991C11.1463 5.64443 7.46 5.65195 3.77375 5.65195H3.55458C3.60667 5.75241 3.67375 5.80949 3.74208 5.86569C4.12083 6.17592 4.50417 6.47994 4.87792 6.79724C5.17792 7.0517 5.28125 7.39378 5.18333 7.78366C5.01708 8.44614 4.28958 8.69175 3.76667 8.26381C2.70667 7.39644 1.65375 6.51977 0.59125 5.65549C0.334167 5.44617 0.103333 5.22711 0 4.89034V4.53719L0.000416667 4.53764Z" fill="#667085"/>
<path d="M16 13.4164C15.9 13.7549 15.6737 13.9766 15.4113 14.1824C14.3125 15.0445 13.2238 15.9211 12.1267 16.7854C11.5642 17.2284 10.8283 16.954 10.6888 16.2526C10.6092 15.853 10.75 15.5304 11.0533 15.2874C11.4521 14.9679 11.8529 14.6524 12.2529 14.3351C12.2963 14.3005 12.3387 14.2643 12.3758 14.1775C12.2996 14.1775 12.2233 14.1775 12.1475 14.1775C8.48083 14.1775 4.81417 14.1696 1.1475 14.1859C0.595833 14.1886 0.207917 14.0129 0 13.4602V13.019C0.207083 12.4667 0.594167 12.2905 1.14583 12.2932C4.8375 12.3096 8.52875 12.3016 12.2204 12.3016C12.2996 12.3016 12.3788 12.3016 12.5158 12.3016C12.4142 12.2131 12.3633 12.1671 12.3104 12.1237C11.9208 11.8046 11.53 11.4873 11.1417 11.1665C10.8375 10.9151 10.7246 10.5823 10.8167 10.1894C10.9783 9.49944 11.7008 9.25472 12.2521 9.70478C13.3071 10.566 14.3529 11.4391 15.4096 12.2981C15.6667 12.5069 15.8967 12.7269 16.0004 13.0628V13.4159L16 13.4164Z" fill="#667085"/>
</svg>
