<svg width="218" height="32" viewBox="0 0 218 32" fill="none" xmlns="http://www.w3.org/2000/svg">
<path d="M35.488 6.456L28.32 26H23.56L16.392 6.456H20.592L25.968 21.996L31.316 6.456H35.488ZM39.8263 8.64C39.1356 8.64 38.5569 8.42533 38.0903 7.996C37.6423 7.548 37.4183 6.99733 37.4183 6.344C37.4183 5.69067 37.6423 5.14933 38.0903 4.72C38.5569 4.272 39.1356 4.048 39.8263 4.048C40.5169 4.048 41.0863 4.272 41.5343 4.72C42.0009 5.14933 42.2343 5.69067 42.2343 6.344C42.2343 6.99733 42.0009 7.548 41.5343 7.996C41.0863 8.42533 40.5169 8.64 39.8263 8.64ZM41.7583 10.488V26H37.8383V10.488H41.7583ZM52.0992 22.388L56.0192 10.488H60.1912L54.4512 26H49.6912L43.9792 10.488H48.1792L52.0992 22.388ZM69.2809 26.252C67.7876 26.252 66.4436 25.9253 65.2489 25.272C64.0543 24.6 63.1116 23.6573 62.4209 22.444C61.7489 21.2307 61.4129 19.8307 61.4129 18.244C61.4129 16.6573 61.7583 15.2573 62.4489 14.044C63.1583 12.8307 64.1196 11.8973 65.3329 11.244C66.5463 10.572 67.8996 10.236 69.3929 10.236C70.8863 10.236 72.2396 10.572 73.4529 11.244C74.6663 11.8973 75.6183 12.8307 76.3089 14.044C77.0183 15.2573 77.3729 16.6573 77.3729 18.244C77.3729 19.8307 77.0089 21.2307 76.2809 22.444C75.5716 23.6573 74.6009 24.6 73.3689 25.272C72.1556 25.9253 70.7929 26.252 69.2809 26.252ZM69.2809 22.836C69.9903 22.836 70.6529 22.668 71.2689 22.332C71.9036 21.9773 72.4076 21.4547 72.7809 20.764C73.1543 20.0733 73.3409 19.2333 73.3409 18.244C73.3409 16.7693 72.9489 15.64 72.1649 14.856C71.3996 14.0533 70.4569 13.652 69.3369 13.652C68.2169 13.652 67.2743 14.0533 66.5089 14.856C65.7623 15.64 65.3889 16.7693 65.3889 18.244C65.3889 19.7187 65.7529 20.8573 66.4809 21.66C67.2276 22.444 68.1609 22.836 69.2809 22.836Z" fill="url(#paint0_linear_121_23498)"/>
<path d="M100.02 15.976C101.121 16.1813 102.027 16.732 102.736 17.628C103.445 18.524 103.8 19.5507 103.8 20.708C103.8 21.7533 103.539 22.6773 103.016 23.48C102.512 24.264 101.775 24.88 100.804 25.328C99.8333 25.776 98.6853 26 97.36 26H88.932V6.456H96.996C98.3213 6.456 99.46 6.67067 100.412 7.1C101.383 7.52933 102.111 8.12667 102.596 8.892C103.1 9.65733 103.352 10.5253 103.352 11.496C103.352 12.6347 103.044 13.5867 102.428 14.352C101.831 15.1173 101.028 15.6587 100.02 15.976ZM92.852 14.52H96.436C97.3693 14.52 98.088 14.3147 98.592 13.904C99.096 13.4747 99.348 12.868 99.348 12.084C99.348 11.3 99.096 10.6933 98.592 10.264C98.088 9.83467 97.3693 9.62 96.436 9.62H92.852V14.52ZM96.8 22.808C97.752 22.808 98.4893 22.584 99.012 22.136C99.5533 21.688 99.824 21.0533 99.824 20.232C99.824 19.392 99.544 18.7387 98.984 18.272C98.424 17.7867 97.668 17.544 96.716 17.544H92.852V22.808H96.8ZM121.568 10.488V26H117.62V24.04C117.116 24.712 116.454 25.244 115.632 25.636C114.83 26.0093 113.952 26.196 113 26.196C111.787 26.196 110.714 25.944 109.78 25.44C108.847 24.9173 108.11 24.1613 107.568 23.172C107.046 22.164 106.784 20.9693 106.784 19.588V10.488H110.704V19.028C110.704 20.26 111.012 21.212 111.628 21.884C112.244 22.5373 113.084 22.864 114.148 22.864C115.231 22.864 116.08 22.5373 116.696 21.884C117.312 21.212 117.62 20.26 117.62 19.028V10.488H121.568ZM131.372 26.252C130.103 26.252 128.964 26.028 127.956 25.58C126.948 25.1133 126.145 24.488 125.548 23.704C124.969 22.92 124.652 22.052 124.596 21.1H128.544C128.619 21.6973 128.908 22.192 129.412 22.584C129.935 22.976 130.579 23.172 131.344 23.172C132.091 23.172 132.669 23.0227 133.08 22.724C133.509 22.4253 133.724 22.0427 133.724 21.576C133.724 21.072 133.463 20.6987 132.94 20.456C132.436 20.1947 131.624 19.9147 130.504 19.616C129.347 19.336 128.395 19.0467 127.648 18.748C126.92 18.4493 126.285 17.992 125.744 17.376C125.221 16.76 124.96 15.9293 124.96 14.884C124.96 14.0253 125.203 13.2413 125.688 12.532C126.192 11.8227 126.901 11.2627 127.816 10.852C128.749 10.4413 129.841 10.236 131.092 10.236C132.94 10.236 134.415 10.7027 135.516 11.636C136.617 12.5507 137.224 13.792 137.336 15.36H133.584C133.528 14.744 133.267 14.2587 132.8 13.904C132.352 13.5307 131.745 13.344 130.98 13.344C130.271 13.344 129.72 13.4747 129.328 13.736C128.955 13.9973 128.768 14.3613 128.768 14.828C128.768 15.3507 129.029 15.752 129.552 16.032C130.075 16.2933 130.887 16.564 131.988 16.844C133.108 17.124 134.032 17.4133 134.76 17.712C135.488 18.0107 136.113 18.4773 136.636 19.112C137.177 19.728 137.457 20.5493 137.476 21.576C137.476 22.472 137.224 23.2747 136.72 23.984C136.235 24.6933 135.525 25.2533 134.592 25.664C133.677 26.056 132.604 26.252 131.372 26.252ZM151.286 22.892H157.726V26H147.366V6.456H151.286V22.892ZM162.205 8.64C161.514 8.64 160.936 8.42533 160.469 7.996C160.021 7.548 159.797 6.99733 159.797 6.344C159.797 5.69067 160.021 5.14933 160.469 4.72C160.936 4.272 161.514 4.048 162.205 4.048C162.896 4.048 163.465 4.272 163.913 4.72C164.38 5.14933 164.613 5.69067 164.613 6.344C164.613 6.99733 164.38 7.548 163.913 7.996C163.465 8.42533 162.896 8.64 162.205 8.64ZM164.137 10.488V26H160.217V10.488H164.137ZM176.606 10.264C178.454 10.264 179.947 10.852 181.086 12.028C182.225 13.1853 182.794 14.8093 182.794 16.9V26H178.874V17.432C178.874 16.2 178.566 15.2573 177.95 14.604C177.334 13.932 176.494 13.596 175.43 13.596C174.347 13.596 173.489 13.932 172.854 14.604C172.238 15.2573 171.93 16.2 171.93 17.432V26H168.01V10.488H171.93V12.42C172.453 11.748 173.115 11.2253 173.918 10.852C174.739 10.46 175.635 10.264 176.606 10.264ZM200.942 17.908C200.942 18.468 200.905 18.972 200.83 19.42H189.49C189.583 20.54 189.975 21.4173 190.666 22.052C191.357 22.6867 192.206 23.004 193.214 23.004C194.67 23.004 195.706 22.3787 196.322 21.128H200.55C200.102 22.6213 199.243 23.8533 197.974 24.824C196.705 25.776 195.146 26.252 193.298 26.252C191.805 26.252 190.461 25.9253 189.266 25.272C188.09 24.6 187.166 23.6573 186.494 22.444C185.841 21.2307 185.514 19.8307 185.514 18.244C185.514 16.6387 185.841 15.2293 186.494 14.016C187.147 12.8027 188.062 11.8693 189.238 11.216C190.414 10.5627 191.767 10.236 193.298 10.236C194.773 10.236 196.089 10.5533 197.246 11.188C198.422 11.8227 199.327 12.728 199.962 13.904C200.615 15.0613 200.942 16.396 200.942 17.908ZM196.882 16.788C196.863 15.78 196.499 14.9773 195.79 14.38C195.081 13.764 194.213 13.456 193.186 13.456C192.215 13.456 191.394 13.7547 190.722 14.352C190.069 14.9307 189.667 15.7427 189.518 16.788H196.882ZM209.739 26.252C208.47 26.252 207.331 26.028 206.323 25.58C205.315 25.1133 204.512 24.488 203.915 23.704C203.336 22.92 203.019 22.052 202.963 21.1H206.911C206.986 21.6973 207.275 22.192 207.779 22.584C208.302 22.976 208.946 23.172 209.711 23.172C210.458 23.172 211.036 23.0227 211.447 22.724C211.876 22.4253 212.091 22.0427 212.091 21.576C212.091 21.072 211.83 20.6987 211.307 20.456C210.803 20.1947 209.991 19.9147 208.871 19.616C207.714 19.336 206.762 19.0467 206.015 18.748C205.287 18.4493 204.652 17.992 204.111 17.376C203.588 16.76 203.327 15.9293 203.327 14.884C203.327 14.0253 203.57 13.2413 204.055 12.532C204.559 11.8227 205.268 11.2627 206.183 10.852C207.116 10.4413 208.208 10.236 209.459 10.236C211.307 10.236 212.782 10.7027 213.883 11.636C214.984 12.5507 215.591 13.792 215.703 15.36H211.951C211.895 14.744 211.634 14.2587 211.167 13.904C210.719 13.5307 210.112 13.344 209.347 13.344C208.638 13.344 208.087 13.4747 207.695 13.736C207.322 13.9973 207.135 14.3613 207.135 14.828C207.135 15.3507 207.396 15.752 207.919 16.032C208.442 16.2933 209.254 16.564 210.355 16.844C211.475 17.124 212.399 17.4133 213.127 17.712C213.855 18.0107 214.48 18.4773 215.003 19.112C215.544 19.728 215.824 20.5493 215.843 21.576C215.843 22.472 215.591 23.2747 215.087 23.984C214.602 24.6933 213.892 25.2533 212.959 25.664C212.044 26.056 210.971 26.252 209.739 26.252Z" fill="url(#paint1_linear_121_23498)"/>
<defs>
<linearGradient id="paint0_linear_121_23498" x1="16" y1="24" x2="82.9201" y2="21.3814" gradientUnits="userSpaceOnUse">
<stop stop-color="#9747FF"/>
<stop offset="1" stop-color="#3762FA"/>
</linearGradient>
<linearGradient id="paint1_linear_121_23498" x1="87" y1="24" x2="225.448" y2="12.735" gradientUnits="userSpaceOnUse">
<stop stop-color="#FF8717"/>
<stop offset="1" stop-color="#FAB837"/>
</linearGradient>
</defs>
</svg>
